# xmcd
#
# Track frame offsets:
#	150
#	12499
#	24649
#	38273
#	51023
#	64879
#	76315
#	87538
#	99118
#	111962
#	121862
#	135512
#	140412
#
# Disc length: 2117 seconds
#
# Revision: 1
# Processed by: cddbd v1.5.2PL0 Copyright (c) Steve Scherf et al.
# Submitted via: CDmax 2.0
#
DISCID=a008430d
DTITLE=Various Artist - rare trax vol. 55 - R&B Jukebox
DYEAR=2007
DGENRE=Blues
TTITLE0=Larry Williams - Slow down
TTITLE1=Little Willie John - Fever
TTITLE2=Slim Harpo - I'm a king bee
TTITLE3=Willie Mae "Big Mama" Thornton - Hound dog
TTITLE4=Howlin' Wolf - Smokestack lightnin'
TTITLE5=Smiley Lewis - I hear you knocking
TTITLE6=Chuck Willis - C. C. Rider
TTITLE7=Johnny Otis Show - Willie and the hand jive
TTITLE8=Muddy Waters - I just want to make love with you
TTITLE9=Richard Berry - Louie, Louie
TTITLE10=The Robins - Riot in cell block #9
TTITLE11=Talking Books Intro
TTITLE12=Wenedikt Jerofejew - Die Reise nach Petuschki
EXTD=
EXTT0=
EXTT1=
EXTT2=
EXTT3=
EXTT4=
EXTT5=
EXTT6=
EXTT7=
EXTT8=
EXTT9=
EXTT10=
EXTT11=
EXTT12=
PLAYORDER=
